<svg width="16" height="16" fill="none" viewBox="0 0 24 24">
    <path stroke="currentColor" stroke-linecap="round" stroke-linejoin="round"
        d="M17.3213 14.501c-.3204-.1755-.5195-.5117-.5195-.877v-3.2467c0-.3653.1991-.70155.5195-.87706l3.6075-1.9761c.6664-.36506 1.4804.11718 1.4804.87703v7.19893c0 .7598-.814 1.2421-1.4804.877l-3.6075-1.9761ZM8.43066 8.53223h4.12974v4.12967M5.91504 15.1943 12.438 8.67136" />
    <path stroke="currentColor" stroke-linecap="round" stroke-linejoin="round"
        d="M3.59082 19.499c-1.10457 0-2-.8954-2-2V6.50193c0-1.10457.89543-2 2-2H14.8013c1.1045 0 2 .89543 2 2V17.499c0 1.1046-.8955 2-2 2H3.59082Z" />
</svg>