<?xml version="1.0" encoding="UTF-8"?><svg id="Capa_1" xmlns="http://www.w3.org/2000/svg" viewBox="0 0 841.89 595.28"><defs><style>.cls-1{fill:#fff;}</style></defs><g><g><path class="cls-1" d="M107.78,286.72v-50.84h48.68v4.18h-43.71v17.86h40.4v4.32h-40.4v20.23h45.8v4.25h-50.76Z"/><path class="cls-1" d="M268.85,279.16c-3.17,4.61-10.01,8.86-22.47,8.86-1.44,0-2.88-.07-4.39-.14-2.16-.14-12.82-.65-19.15-7.42-1.94-2.02-3.02-4.1-4.32-6.48l5.33-2.02c.65,1.66,2.09,5.18,6.05,7.85,2.95,1.94,8.06,3.74,16.13,3.74,1.94,0,8.93,0,14.54-3.31,3.1-1.87,5.4-4.61,5.4-8.35,0-2.95-1.51-4.61-2.38-5.33-3.24-2.66-11.88-3.6-15.62-4.1-3.1-.43-6.19-.79-9.22-1.22-3.24-.5-7.27-1.01-10.22-2.52-1.73-.86-6.05-3.53-6.05-9.43,0-4.9,3.17-9,7.27-11.3,4.54-2.52,11.02-3.46,16.13-3.46,3.1,0,12.75,.22,20.38,6.48,1.8,1.51,2.88,2.81,3.46,3.53l-4.61,2.45c-.43-.58-1.01-1.3-1.51-1.87-4.68-4.75-11.67-6.19-18.07-6.19-1.44,0-8.14,0-13.18,2.95-1.44,.86-2.88,2.09-3.74,3.6-.29,.5-.94,1.87-.94,3.6,0,3.6,2.95,4.97,3.96,5.47,2.16,1.01,4.61,1.37,9.43,2.02,11.09,1.58,18.15,2.3,22.61,4.25,4.54,1.94,7.56,5.76,7.56,10.8,0,1.44-.29,4.46-2.38,7.56Z"/><path class="cls-1" d="M338.25,286.72v-50.84h5.04v46.59h37.01v4.25h-42.05Z"/><path class="cls-1" d="M608.11,286.72l-43.56-44.36v44.36h-4.54v-50.84h4.54l43.56,44.57v-44.57h4.54v50.84h-4.54Z"/><path class="cls-1" d="M733.1,269.36c-1.73,6.41-5.83,11.95-11.95,14.76-5.18,2.38-10.51,2.59-15.99,2.59h-23.04v-50.84h25.42c1.51,0,3.02,0,4.54,.14,5.04,.36,9.36,1.8,13.39,5.11,8.21,6.77,8.64,17.14,8.64,20.31,0,1.22-.07,4.46-1.01,7.92Zm-16.27-27.87c-3.31-1.22-5.83-1.44-9.29-1.44h-20.38v42.41h16.2c6.84,0,14.54-.14,19.87-5.18,2.74-2.59,5.76-7.2,5.76-15.55s-3.6-17.07-12.17-20.23Z"/></g><polygon class="cls-1" points="465.27 287.78 446.64 290.41 465.27 218.89 433.39 303.71 465.27 287.78"/><polygon class="cls-1" points="470.58 287.78 489.2 290.41 470.58 218.89 502.46 303.71 470.58 287.78"/><polygon class="cls-1" points="467.93 245.42 463.86 269.11 467.93 277.15 472 269.11 467.93 245.42"/></g><g><path class="cls-1" d="M136.07,351.43c-.35,0-.53-.18-.53-.53v-11.83c0-.35,.18-.53,.53-.53h4.68c1.14,0,2,.29,2.58,.88,.58,.59,.88,1.45,.88,2.59v.6c0,1.13-.29,1.99-.88,2.58-.58,.59-1.44,.88-2.58,.88h-4.16v4.83c0,.35-.17,.53-.52,.53Zm.52-6.41h4.16c.84,0,1.45-.19,1.83-.57,.38-.38,.58-1,.58-1.83v-.6c0-.85-.19-1.46-.58-1.84s-1-.58-1.83-.58h-4.16v5.43Z"/><path class="cls-1" d="M155.47,351.46c-.15,.08-.28,.11-.4,.08-.12-.03-.23-.11-.31-.25l-3.28-5.22h-3.67v4.83c0,.35-.17,.53-.52,.53s-.53-.18-.53-.53v-11.83c0-.35,.18-.53,.53-.53h4.68c1.14,0,2,.29,2.58,.88,.58,.59,.88,1.45,.88,2.59v.6c0,1.01-.23,1.8-.69,2.37-.46,.57-1.14,.92-2.04,1.05l2.95,4.7c.19,.31,.13,.55-.17,.73Zm-7.67-6.44h4.16c.84,0,1.45-.19,1.83-.57,.38-.38,.58-1,.58-1.83v-.6c0-.85-.19-1.46-.58-1.84s-1-.58-1.83-.58h-4.16v5.43Z"/><path class="cls-1" d="M159.14,351.43c-.35,0-.53-.18-.53-.53v-11.83c0-.35,.18-.53,.53-.53h7.49c.35,0,.53,.17,.53,.52s-.18,.53-.53,.53h-6.97v4.79h4.61c.35,0,.53,.17,.53,.52s-.18,.53-.53,.53h-4.61v4.95h6.97c.35,0,.53,.17,.53,.52s-.18,.53-.53,.53h-7.49Z"/><path class="cls-1" d="M170.36,351.43c-.35,0-.53-.18-.53-.53v-11.83c0-.35,.18-.53,.53-.53,.25,0,.45,.12,.6,.35l4.98,7.61-.24,.03,4.98-7.64c.14-.23,.35-.35,.63-.35,.31,0,.47,.18,.47,.53v11.83c0,.35-.17,.53-.52,.53s-.53-.18-.53-.53v-10.78l.31,.11-4.62,7.03c-.15,.23-.36,.34-.63,.34-.24,0-.43-.11-.58-.34l-4.62-7.03,.29,.11v10.56c0,.35-.17,.53-.52,.53Z"/><path class="cls-1" d="M186.05,351.43c-.17,0-.3-.05-.39-.14-.09-.09-.14-.22-.14-.39v-11.84c0-.17,.05-.3,.14-.39,.09-.09,.22-.14,.39-.14s.29,.05,.38,.14,.14,.22,.14,.39v11.84c0,.17-.05,.3-.14,.39s-.22,.14-.38,.14Z"/><path class="cls-1" d="M194.21,351.43c-1.45,0-2.5-.33-3.17-1-.67-.67-1-1.72-1-3.17v-4.56c0-1.46,.33-2.52,1-3.19,.67-.66,1.72-.99,3.15-.97h2.42c1.45,0,2.5,.33,3.17,1,.66,.67,1,1.72,1,3.17v4.55c0,1.45-.33,2.5-1,3.17-.66,.67-1.72,1-3.17,1h-2.4Zm0-1.05h2.4c.77,0,1.38-.1,1.83-.3,.45-.2,.78-.53,.98-.98,.2-.45,.3-1.07,.3-1.84v-4.55c0-.77-.1-1.38-.3-1.83s-.53-.78-.98-.99c-.45-.2-1.06-.3-1.83-.3h-2.42c-.77,0-1.38,.09-1.83,.29-.45,.2-.77,.52-.97,.98-.2,.46-.3,1.07-.3,1.85v4.56c0,.77,.1,1.39,.3,1.84,.2,.45,.53,.78,.98,.98,.45,.2,1.07,.3,1.84,.3Z"/><path class="cls-1" d="M207.55,351.42c-1.19,0-2.08-.26-2.66-.79s-.88-1.37-.92-2.5c0-.17,.04-.3,.13-.4s.23-.14,.39-.14,.29,.05,.38,.14c.09,.09,.15,.22,.16,.38,.03,.84,.23,1.43,.6,1.76,.37,.33,1.01,.5,1.92,.5h2.88c.95,0,1.6-.19,1.98-.56,.37-.37,.55-1.02,.55-1.96s-.19-1.6-.55-1.97c-.37-.37-1.03-.55-1.98-.55h-2.74c-1.17,0-2.03-.27-2.58-.82-.55-.55-.82-1.4-.82-2.57s.27-2.02,.81-2.57c.54-.55,1.4-.82,2.56-.82h2.8c1.12,0,1.95,.25,2.5,.75,.54,.5,.83,1.29,.88,2.36,.01,.16-.03,.29-.12,.38-.1,.1-.23,.14-.4,.14-.15,0-.28-.05-.37-.14-.09-.09-.15-.22-.16-.38-.03-.77-.21-1.3-.56-1.61s-.93-.46-1.76-.46h-2.8c-.87,0-1.48,.17-1.82,.51-.34,.34-.51,.95-.51,1.83s.17,1.48,.51,1.83c.34,.34,.96,.51,1.83,.51h2.74c1.24,0,2.15,.29,2.72,.87,.57,.58,.86,1.48,.86,2.71s-.29,2.14-.86,2.71c-.57,.57-1.48,.86-2.72,.86h-2.88Z"/><path class="cls-1" d="M221.49,351.38c-.32-.14-.42-.37-.29-.7l4.96-11.73c.11-.27,.3-.41,.59-.41h.06c.27,0,.47,.14,.58,.41l4.96,11.73c.13,.33,.04,.56-.28,.7-.33,.13-.55,.04-.68-.28l-1.33-3.14h-6.55l-1.33,3.14c-.13,.32-.36,.41-.69,.28Zm2.45-4.48h5.68l-2.84-6.7-2.84,6.7Z"/><path class="cls-1" d="M240.34,351.43c-.35,0-.53-.18-.53-.53v-11.83c0-.35,.18-.53,.53-.53s.52,.18,.52,.53v11.31h6.08c.35,0,.53,.17,.53,.52s-.18,.53-.53,.53h-6.6Z"/><path class="cls-1" d="M248.8,351.38c-.32-.14-.42-.37-.29-.7l4.96-11.73c.11-.27,.3-.41,.59-.41h.06c.27,0,.47,.14,.58,.41l4.96,11.73c.13,.33,.04,.56-.28,.7-.33,.13-.55,.04-.68-.28l-1.33-3.14h-6.55l-1.33,3.14c-.13,.32-.36,.41-.69,.28Zm2.45-4.48h5.68l-2.84-6.7-2.84,6.7Z"/><path class="cls-1" d="M271.02,351.43c-1.45,0-2.5-.33-3.17-1-.67-.67-1-1.72-1-3.17v-4.55c0-1.46,.33-2.52,1-3.18,.66-.66,1.71-.99,3.15-.99h2.42c1.23,0,2.14,.25,2.74,.76,.6,.51,.93,1.33,.99,2.46,.02,.18-.02,.32-.1,.41s-.22,.14-.4,.14c-.33,0-.52-.18-.55-.53-.05-.83-.27-1.4-.68-1.72-.41-.32-1.07-.47-2-.47h-2.42c-.77,0-1.38,.1-1.83,.29-.45,.2-.78,.52-.98,.98-.2,.46-.29,1.07-.29,1.84v4.55c0,.77,.1,1.39,.3,1.84,.2,.45,.53,.78,.98,.98,.45,.2,1.07,.3,1.84,.3h2.4c.93,0,1.59-.16,2-.47,.41-.32,.63-.89,.68-1.72,.03-.35,.22-.53,.55-.53,.17,0,.31,.05,.4,.14s.12,.23,.1,.41c-.06,1.13-.39,1.95-.99,2.46-.6,.51-1.51,.76-2.74,.76h-2.4Z"/><path class="cls-1" d="M284.33,351.43c-1.45,0-2.5-.33-3.17-1-.67-.67-1-1.72-1-3.17v-4.56c0-1.46,.33-2.52,1-3.19,.67-.66,1.72-.99,3.15-.97h2.42c1.45,0,2.5,.33,3.17,1,.66,.67,1,1.72,1,3.17v4.55c0,1.45-.33,2.5-1,3.17-.66,.67-1.72,1-3.17,1h-2.4Zm0-1.05h2.4c.77,0,1.38-.1,1.83-.3,.45-.2,.78-.53,.98-.98,.2-.45,.3-1.07,.3-1.84v-4.55c0-.77-.1-1.38-.3-1.83s-.53-.78-.98-.99c-.45-.2-1.06-.3-1.83-.3h-2.42c-.77,0-1.38,.09-1.83,.29-.45,.2-.77,.52-.97,.98-.2,.46-.3,1.07-.3,1.85v4.56c0,.77,.1,1.39,.3,1.84,.2,.45,.53,.78,.98,.98,.45,.2,1.07,.3,1.84,.3Z"/><path class="cls-1" d="M294.89,351.43c-.35,0-.53-.18-.53-.53v-11.83c0-.35,.18-.53,.53-.53,.25,0,.45,.12,.6,.35l4.98,7.61-.24,.03,4.98-7.64c.14-.23,.35-.35,.63-.35,.31,0,.47,.18,.47,.53v11.83c0,.35-.17,.53-.52,.53s-.53-.18-.53-.53v-10.78l.31,.11-4.62,7.03c-.15,.23-.36,.34-.63,.34-.24,0-.43-.11-.58-.34l-4.62-7.03,.29,.11v10.56c0,.35-.17,.53-.52,.53Z"/><path class="cls-1" d="M314.12,351.43c-1.45,0-2.5-.33-3.17-1-.67-.67-1-1.72-1-3.17v-8.19c0-.16,.05-.29,.15-.39s.23-.14,.38-.14,.29,.05,.38,.14c.09,.1,.14,.23,.14,.39v8.19c0,.77,.1,1.39,.3,1.84,.2,.45,.53,.78,.98,.98,.45,.2,1.07,.3,1.84,.3h2.4c.77,0,1.38-.1,1.83-.3s.78-.53,.98-.98c.2-.45,.3-1.07,.3-1.84v-8.19c0-.16,.05-.29,.15-.39,.1-.1,.22-.14,.38-.14s.29,.05,.38,.14,.14,.23,.14,.39v8.19c0,1.45-.33,2.5-1,3.17-.66,.67-1.72,1-3.17,1h-2.4Z"/><path class="cls-1" d="M324.85,351.43c-.35,0-.53-.18-.53-.53v-11.83c0-.35,.18-.53,.53-.53,.19,0,.37,.1,.54,.31l8.47,10.88h-.24v-10.66c0-.35,.18-.53,.53-.53s.52,.18,.52,.53v11.83c0,.35-.17,.53-.52,.53-.19,0-.37-.1-.54-.31l-8.48-10.88h.24v10.66c0,.35-.17,.53-.52,.53Z"/><path class="cls-1" d="M338.94,351.43c-.17,0-.3-.05-.39-.14-.09-.09-.14-.22-.14-.39v-11.84c0-.17,.05-.3,.14-.39,.09-.09,.22-.14,.39-.14s.29,.05,.38,.14,.14,.22,.14,.39v11.84c0,.17-.05,.3-.14,.39s-.22,.14-.38,.14Z"/><path class="cls-1" d="M343.73,351.43c-.35,0-.53-.18-.53-.53v-11.83c0-.35,.18-.53,.53-.53h4.82c1.66,0,2.87,.38,3.62,1.14,.76,.76,1.13,1.97,1.13,3.63v3.35c0,1.66-.38,2.87-1.13,3.63-.76,.76-1.97,1.14-3.62,1.14h-4.82Zm.52-1.05h4.3c.91,0,1.63-.12,2.17-.36,.54-.24,.94-.63,1.17-1.17,.24-.54,.36-1.27,.36-2.18v-3.35c0-.91-.12-1.63-.36-2.17-.24-.54-.63-.94-1.17-1.18s-1.27-.37-2.17-.37h-4.3v10.79Z"/><path class="cls-1" d="M355.57,351.38c-.32-.14-.42-.37-.29-.7l4.96-11.73c.11-.27,.3-.41,.59-.41h.06c.27,0,.47,.14,.58,.41l4.96,11.73c.13,.33,.04,.56-.28,.7-.33,.13-.55,.04-.68-.28l-1.33-3.14h-6.55l-1.33,3.14c-.13,.32-.36,.41-.69,.28Zm2.45-4.48h5.68l-2.84-6.7-2.84,6.7Z"/><path class="cls-1" d="M369.4,351.43c-.35,0-.53-.18-.53-.53v-11.83c0-.35,.18-.53,.53-.53h4.82c1.66,0,2.87,.38,3.62,1.14,.76,.76,1.13,1.97,1.13,3.63v3.35c0,1.66-.38,2.87-1.13,3.63-.76,.76-1.97,1.14-3.62,1.14h-4.82Zm.52-1.05h4.3c.91,0,1.63-.12,2.17-.36,.54-.24,.94-.63,1.17-1.17,.24-.54,.36-1.27,.36-2.18v-3.35c0-.91-.12-1.63-.36-2.17-.24-.54-.63-.94-1.17-1.18s-1.27-.37-2.17-.37h-4.3v10.79Z"/><path class="cls-1" d="M388,351.43c-.16,0-.29-.05-.38-.14-.1-.1-.15-.23-.15-.38v-11.83c0-.16,.05-.29,.15-.39,.1-.1,.23-.14,.38-.14s.29,.05,.38,.14,.14,.23,.14,.39v5.3h8.39v-5.3c0-.16,.05-.29,.14-.39,.09-.1,.22-.14,.38-.14s.29,.05,.38,.14,.15,.23,.15,.39v11.83c0,.16-.05,.29-.15,.38s-.22,.14-.38,.14-.29-.05-.38-.14c-.09-.1-.14-.23-.14-.38v-5.48h-8.39v5.48c0,.16-.05,.29-.14,.38s-.22,.14-.38,.14Z"/><path class="cls-1" d="M402.23,351.43c-.17,0-.3-.05-.39-.14-.09-.09-.14-.22-.14-.39v-11.84c0-.17,.05-.3,.14-.39,.09-.09,.22-.14,.39-.14s.29,.05,.38,.14,.14,.22,.14,.39v11.84c0,.17-.05,.3-.14,.39s-.22,.14-.38,.14Z"/><path class="cls-1" d="M409.8,351.42c-1.19,0-2.08-.26-2.66-.79s-.88-1.37-.92-2.5c0-.17,.04-.3,.13-.4s.23-.14,.39-.14,.29,.05,.38,.14c.09,.09,.15,.22,.16,.38,.03,.84,.23,1.43,.6,1.76,.37,.33,1.01,.5,1.92,.5h2.88c.95,0,1.6-.19,1.98-.56,.37-.37,.55-1.02,.55-1.96s-.19-1.6-.55-1.97c-.37-.37-1.03-.55-1.98-.55h-2.74c-1.17,0-2.03-.27-2.58-.82-.55-.55-.82-1.4-.82-2.57s.27-2.02,.81-2.57c.54-.55,1.4-.82,2.56-.82h2.8c1.12,0,1.95,.25,2.5,.75,.54,.5,.83,1.29,.88,2.36,.01,.16-.03,.29-.12,.38-.1,.1-.23,.14-.4,.14-.15,0-.28-.05-.37-.14-.09-.09-.15-.22-.16-.38-.03-.77-.21-1.3-.56-1.61s-.93-.46-1.76-.46h-2.8c-.87,0-1.48,.17-1.82,.51-.34,.34-.51,.95-.51,1.83s.17,1.48,.51,1.83c.34,.34,.96,.51,1.83,.51h2.74c1.24,0,2.15,.29,2.72,.87,.57,.58,.86,1.48,.86,2.71s-.29,2.14-.86,2.71c-.57,.57-1.48,.86-2.72,.86h-2.88Z"/><path class="cls-1" d="M420.25,351.43c-.35,0-.53-.18-.53-.53v-11.83c0-.35,.18-.53,.53-.53h4.68c1.14,0,2,.29,2.58,.88s.88,1.45,.88,2.59v.6c0,1.13-.29,1.99-.88,2.58-.58,.59-1.44,.88-2.58,.88h-4.16v4.83c0,.35-.17,.53-.52,.53Zm.52-6.41h4.16c.84,0,1.45-.19,1.83-.57s.58-1,.58-1.83v-.6c0-.85-.19-1.46-.58-1.84-.38-.38-1-.58-1.83-.58h-4.16v5.43Z"/><path class="cls-1" d="M428.72,351.38c-.32-.14-.42-.37-.29-.7l4.96-11.73c.11-.27,.3-.41,.59-.41h.06c.27,0,.47,.14,.58,.41l4.96,11.73c.13,.33,.04,.56-.28,.7-.33,.13-.55,.04-.68-.28l-1.33-3.14h-6.55l-1.33,3.14c-.13,.32-.36,.41-.69,.28Zm2.45-4.48h5.68l-2.84-6.7-2.84,6.7Z"/><path class="cls-1" d="M442.55,351.43c-.35,0-.53-.18-.53-.53v-11.83c0-.35,.18-.53,.53-.53,.19,0,.37,.1,.54,.31l8.47,10.88h-.24v-10.66c0-.35,.18-.53,.53-.53s.52,.18,.52,.53v11.83c0,.35-.17,.53-.52,.53-.19,0-.37-.1-.54-.31l-8.48-10.88h.24v10.66c0,.35-.17,.53-.52,.53Z"/><path class="cls-1" d="M460.01,351.43c-1.45,0-2.5-.33-3.17-1-.67-.67-1-1.72-1-3.17v-4.56c0-1.46,.33-2.52,1-3.19,.67-.66,1.72-.99,3.15-.97h2.42c1.45,0,2.5,.33,3.17,1,.66,.67,1,1.72,1,3.17v4.55c0,1.45-.33,2.5-1,3.17-.66,.67-1.72,1-3.17,1h-2.4Zm0-1.05h2.4c.77,0,1.38-.1,1.83-.3,.45-.2,.78-.53,.98-.98,.2-.45,.3-1.07,.3-1.84v-4.55c0-.77-.1-1.38-.3-1.83s-.53-.78-.98-.99c-.45-.2-1.06-.3-1.83-.3h-2.42c-.77,0-1.38,.09-1.83,.29s-.78,.52-.97,.98c-.2,.46-.3,1.07-.3,1.85v4.56c0,.77,.1,1.39,.3,1.84,.2,.45,.53,.78,.98,.98s1.07,.3,1.84,.3Z"/><path class="cls-1" d="M470.57,351.43c-.16,0-.29-.05-.38-.14s-.14-.23-.14-.38v-11.83c0-.16,.05-.29,.14-.39s.23-.14,.38-.14,.29,.05,.38,.14c.09,.1,.14,.23,.14,.39v5.3h8.39v-5.3c0-.16,.05-.29,.14-.39,.09-.1,.22-.14,.38-.14s.29,.05,.38,.14,.14,.23,.14,.39v11.83c0,.16-.05,.29-.14,.38s-.22,.14-.38,.14-.29-.05-.38-.14c-.09-.1-.14-.23-.14-.38v-5.48h-8.39v5.48c0,.16-.05,.29-.14,.38-.09,.1-.22,.14-.38,.14Z"/><path class="cls-1" d="M483.26,351.38c-.32-.14-.42-.37-.29-.7l4.96-11.73c.11-.27,.3-.41,.59-.41h.06c.27,0,.47,.14,.58,.41l4.96,11.73c.13,.33,.04,.56-.28,.7-.33,.13-.55,.04-.68-.28l-1.33-3.14h-6.55l-1.33,3.14c-.13,.32-.36,.41-.69,.28Zm2.45-4.48h5.68l-2.84-6.7-2.84,6.7Z"/><path class="cls-1" d="M497.09,351.43c-.35,0-.53-.18-.53-.53v-11.83c0-.35,.18-.53,.53-.53h5.22c.98,0,1.72,.25,2.22,.75,.5,.5,.75,1.22,.75,2.18v.54c0,1.05-.34,1.79-1.01,2.22,1.17,.48,1.75,1.52,1.75,3.12v.63c0,1.13-.29,1.99-.88,2.58s-1.45,.88-2.58,.88h-5.48Zm.52-7.51h4.85c.61,0,1.06-.16,1.35-.46,.29-.31,.43-.79,.43-1.45v-.54c0-.67-.15-1.15-.46-1.44-.3-.29-.79-.44-1.47-.44h-4.7v4.33Zm0,6.46h4.96c.85,0,1.46-.19,1.84-.57s.57-.99,.57-1.83v-.63c0-.84-.19-1.45-.57-1.82-.38-.37-.99-.56-1.84-.56h-4.96v5.41Z"/><path class="cls-1" d="M509.5,351.43c-.35,0-.53-.18-.53-.53v-11.83c0-.35,.18-.53,.53-.53s.52,.18,.52,.53v11.31h6.08c.35,0,.53,.17,.53,.52s-.18,.53-.53,.53h-6.6Z"/><path class="cls-1" d="M517.96,351.38c-.32-.14-.42-.37-.29-.7l4.96-11.73c.11-.27,.3-.41,.59-.41h.06c.27,0,.47,.14,.58,.41l4.96,11.73c.13,.33,.04,.56-.28,.7-.33,.13-.55,.04-.68-.28l-1.33-3.14h-6.55l-1.33,3.14c-.13,.32-.36,.41-.69,.28Zm2.45-4.48h5.68l-2.84-6.7-2.84,6.7Z"/><path class="cls-1" d="M531.79,351.43c-.35,0-.53-.18-.53-.53v-11.83c0-.35,.18-.53,.53-.53,.19,0,.37,.1,.54,.31l8.47,10.88h-.24v-10.66c0-.35,.18-.53,.53-.53s.52,.18,.52,.53v11.83c0,.35-.17,.53-.52,.53-.19,0-.37-.1-.54-.31l-8.48-10.88h.24v10.66c0,.35-.17,.53-.52,.53Z"/><path class="cls-1" d="M549.16,351.44c-.16,0-.29-.05-.39-.14-.1-.09-.14-.22-.14-.38v-11.34h-4.25c-.16,0-.29-.05-.38-.14-.1-.09-.15-.22-.15-.38s.05-.29,.15-.38c.1-.1,.22-.14,.38-.14h9.56c.16,0,.29,.05,.38,.14,.09,.1,.14,.23,.14,.38s-.05,.29-.14,.38c-.09,.09-.22,.14-.38,.14h-4.26v11.34c0,.15-.05,.28-.14,.38-.1,.1-.22,.14-.38,.14Z"/><path class="cls-1" d="M557.23,351.43c-.35,0-.53-.18-.53-.53v-11.83c0-.35,.18-.53,.53-.53h7.49c.35,0,.53,.17,.53,.52s-.18,.53-.53,.53h-6.97v4.79h4.61c.35,0,.53,.17,.53,.52s-.18,.53-.53,.53h-4.61v4.95h6.97c.35,0,.53,.17,.53,.52s-.18,.53-.53,.53h-7.49Z"/><path class="cls-1" d="M573.47,351.43c-.35,0-.53-.18-.53-.53v-11.83c0-.35,.18-.53,.53-.53h4.82c1.66,0,2.87,.38,3.62,1.14s1.13,1.97,1.13,3.63v3.35c0,1.66-.38,2.87-1.13,3.63s-1.96,1.14-3.62,1.14h-4.82Zm.52-1.05h4.3c.91,0,1.63-.12,2.17-.36,.54-.24,.94-.63,1.17-1.17,.24-.54,.36-1.27,.36-2.18v-3.35c0-.91-.12-1.63-.36-2.17-.24-.54-.63-.94-1.17-1.18-.54-.24-1.27-.37-2.17-.37h-4.3v10.79Z"/><path class="cls-1" d="M587.05,351.43c-.35,0-.53-.18-.53-.53v-11.83c0-.35,.18-.53,.53-.53h7.49c.35,0,.53,.17,.53,.52s-.18,.53-.53,.53h-6.97v4.79h4.61c.35,0,.53,.17,.53,.52s-.18,.53-.53,.53h-4.61v4.95h6.97c.35,0,.53,.17,.53,.52s-.18,.53-.53,.53h-7.49Z"/><path class="cls-1" d="M606.07,351.42c-1.19,0-2.08-.26-2.66-.79-.58-.53-.88-1.37-.92-2.5,0-.17,.04-.3,.13-.4s.23-.14,.39-.14,.29,.05,.38,.14c.09,.09,.15,.22,.16,.38,.03,.84,.23,1.43,.6,1.76,.37,.33,1.01,.5,1.92,.5h2.88c.95,0,1.61-.19,1.98-.56,.37-.37,.55-1.02,.55-1.96s-.19-1.6-.55-1.97c-.37-.37-1.03-.55-1.98-.55h-2.74c-1.17,0-2.03-.27-2.58-.82-.55-.55-.82-1.4-.82-2.57s.27-2.02,.81-2.57c.54-.55,1.4-.82,2.57-.82h2.8c1.12,0,1.95,.25,2.5,.75s.83,1.29,.88,2.36c.01,.16-.03,.29-.12,.38s-.23,.14-.39,.14c-.15,0-.28-.05-.37-.14-.09-.09-.15-.22-.16-.38-.03-.77-.21-1.3-.56-1.61s-.93-.46-1.76-.46h-2.8c-.87,0-1.48,.17-1.82,.51-.34,.34-.51,.95-.51,1.83s.17,1.48,.51,1.83,.96,.51,1.83,.51h2.74c1.24,0,2.15,.29,2.72,.87,.57,.58,.86,1.48,.86,2.71s-.29,2.14-.86,2.71c-.57,.57-1.48,.86-2.72,.86h-2.88Z"/><path class="cls-1" d="M618.81,351.44c-.16,0-.29-.05-.38-.14-.1-.09-.15-.22-.15-.38v-11.34h-4.25c-.16,0-.29-.05-.38-.14-.1-.09-.14-.22-.14-.38s.05-.29,.14-.38,.23-.14,.38-.14h9.56c.16,0,.29,.05,.38,.14,.09,.1,.14,.23,.14,.38s-.05,.29-.14,.38-.22,.14-.38,.14h-4.26v11.34c0,.15-.05,.28-.15,.38s-.22,.14-.38,.14Z"/><path class="cls-1" d="M635.07,351.46c-.15,.08-.28,.11-.41,.08-.12-.03-.23-.11-.31-.25l-3.28-5.22h-3.67v4.83c0,.35-.17,.53-.52,.53s-.53-.18-.53-.53v-11.83c0-.35,.18-.53,.53-.53h4.68c1.14,0,2,.29,2.58,.88s.88,1.45,.88,2.59v.6c0,1.01-.23,1.8-.69,2.37-.46,.57-1.14,.92-2.04,1.05l2.95,4.7c.19,.31,.13,.55-.17,.73Zm-7.67-6.44h4.16c.84,0,1.45-.19,1.83-.57,.38-.38,.58-1,.58-1.83v-.6c0-.85-.19-1.46-.58-1.84-.38-.38-1-.58-1.83-.58h-4.16v5.43Z"/><path class="cls-1" d="M638.74,351.43c-.35,0-.53-.18-.53-.53v-11.83c0-.35,.18-.53,.53-.53h7.49c.35,0,.53,.17,.53,.52s-.18,.53-.53,.53h-6.97v4.79h4.61c.35,0,.53,.17,.53,.52s-.18,.53-.53,.53h-4.61v4.95h6.97c.35,0,.53,.17,.53,.52s-.18,.53-.53,.53h-7.49Z"/><path class="cls-1" d="M648.42,351.38c-.32-.14-.42-.37-.29-.7l4.96-11.73c.11-.27,.3-.41,.59-.41h.06c.27,0,.47,.14,.58,.41l4.96,11.73c.13,.33,.04,.56-.28,.7-.33,.13-.55,.04-.68-.28l-1.33-3.14h-6.55l-1.33,3.14c-.13,.32-.36,.41-.69,.28Zm2.45-4.48h5.68l-2.84-6.7-2.84,6.7Z"/><path class="cls-1" d="M662.25,351.43c-.35,0-.53-.18-.53-.53v-11.83c0-.35,.18-.53,.53-.53,.25,0,.45,.12,.6,.35l4.98,7.61-.24,.03,4.98-7.64c.14-.23,.35-.35,.63-.35,.31,0,.47,.18,.47,.53v11.83c0,.35-.17,.53-.52,.53s-.53-.18-.53-.53v-10.78l.31,.11-4.62,7.03c-.15,.23-.36,.34-.63,.34-.24,0-.43-.11-.58-.34l-4.62-7.03,.29,.11v10.56c0,.35-.17,.53-.52,.53Z"/><path class="cls-1" d="M677.94,351.43c-.17,0-.3-.05-.39-.14-.09-.09-.14-.22-.14-.39v-11.84c0-.17,.05-.3,.14-.39,.09-.09,.22-.14,.39-.14s.29,.05,.38,.14c.09,.09,.14,.22,.14,.39v11.84c0,.17-.05,.3-.14,.39-.09,.09-.22,.14-.38,.14Z"/><path class="cls-1" d="M682.73,351.43c-.35,0-.53-.18-.53-.53v-11.83c0-.35,.18-.53,.53-.53,.19,0,.37,.1,.54,.31l8.47,10.88h-.24v-10.66c0-.35,.18-.53,.53-.53s.52,.18,.52,.53v11.83c0,.35-.17,.53-.52,.53-.19,0-.37-.1-.54-.31l-8.48-10.88h.24v10.66c0,.35-.17,.53-.52,.53Z"/><path class="cls-1" d="M700.19,351.43c-1.45,0-2.5-.33-3.17-1s-1-1.72-1-3.17v-4.55c0-1.46,.33-2.52,1-3.18,.66-.66,1.71-.99,3.16-.99h2.42c1.23,0,2.14,.25,2.74,.76,.6,.51,.93,1.33,.99,2.46,.02,.18-.02,.32-.11,.41s-.22,.14-.39,.14c-.33,0-.52-.18-.55-.53-.05-.83-.27-1.4-.68-1.72-.41-.32-1.07-.47-2-.47h-2.42c-.77,0-1.38,.1-1.83,.29-.45,.2-.78,.52-.97,.98-.2,.46-.29,1.07-.29,1.84v4.55c0,.77,.1,1.39,.3,1.84,.2,.45,.53,.78,.98,.98s1.07,.3,1.84,.3h2.4c.68,0,1.22-.08,1.62-.25s.68-.45,.84-.84,.25-.94,.25-1.63v-1.25l-2.19-.02c-.35,0-.52-.18-.52-.53s.17-.52,.52-.52l2.72,.02c.35,0,.52,.17,.52,.52v1.78c0,1.32-.3,2.28-.89,2.88-.59,.6-1.55,.89-2.87,.89h-2.4Z"/></g></svg>