<svg xmlns="http://www.w3.org/2000/svg" data-name="Capa 1" viewBox="0 0 1080 1080"><path d="M863.33 781.35c-28.27 0-120.48-.99-120.48-13.72s92.21-13.71 120.48-13.71 120.49.99 120.49 13.71-92.22 13.72-120.49 13.72Zm-112.69-13.72c10.14 3.55 50.51 7.76 112.69 7.76s102.56-4.21 112.7-7.76c-10.14-3.55-50.51-7.76-112.7-7.76s-102.55 4.2-112.69 7.76ZM317.55 426.92v168.6c0 20.16-15.87 30.46-30.89 30.46s-30.89-10.3-30.89-30.46v-3.43c-14.16 22.74-36.89 36.03-69.07 36.03-46.76 0-90.52-29.6-90.52-98.24V428.2c0-21.45 15.87-32.18 30.89-32.18s30.46 10.73 30.46 32.18v92.24c0 43.33 24.45 55.34 48.05 55.34 29.17 0 50.19-18.45 50.19-56.63v-92.24c0-20.16 15.45-30.46 30.89-30.46s30.89 10.3 30.89 30.46Zm293.42 84.94c0 66.5-42.47 116.26-111.54 116.26-27.03 0-57.06-11.58-74.65-37.32v5.14c0 20.17-15.44 30.46-30.46 30.46s-30.46-10.3-30.46-30.46V329.1c0-20.17 15.44-30.46 30.46-30.46s30.46 10.3 30.46 30.46v108.96c10.3-25.74 39.47-43.33 77.65-43.33 68.21 0 108.54 53.63 108.54 117.12Zm-61.78-.42c0-36.04-25.74-61.78-62.2-61.78s-61.78 26.17-61.78 61.78 25.74 61.77 61.78 61.77 62.2-25.74 62.2-61.77Zm93.5-169.03c0-18.88 15.44-34.33 34.32-34.33s34.32 15.45 34.32 34.33-15.44 34.32-34.32 34.32-34.32-15.44-34.32-34.32Zm3.86 84.09c0-19.74 15.45-30.46 30.46-30.46s30.46 10.73 30.46 30.46v169.45c0 19.74-15.02 30.46-30.46 30.46-14.59 0-30.46-10.3-30.46-30.46V426.5Zm232.71 199.48c-2.32 0-4.65 0-6.64-.34l29.19 27.2c5.97 5.64 8.62 11.94 8.62 17.58 0 11.6-9.62 21.56-20.9 21.56-4.97 0-11.94-1.99-18.9-8.29l-79.28-70.98c-33.17-29.52-48.43-63.35-48.43-98.18 0-68.99 52.07-121.07 120.41-121.07s120.4 52.08 120.4 121.07c0 63.02-44.78 111.45-104.48 111.45Zm34.2-112.4c0-36.04-25.74-61.78-62.2-61.78s-61.78 26.17-61.78 61.78 25.74 61.77 61.78 61.77 62.2-25.74 62.2-61.77Z" style="fill:#fff;stroke-width:0"/></svg>